<?xml version="1.0" encoding="UTF-8" standalone="no"?>
<!DOCTYPE svg PUBLIC "-//W3C//DTD SVG 1.1//EN"
 "http://www.w3.org/Graphics/SVG/1.1/DTD/svg11.dtd">
<!-- Generated by graphviz version 2.40.1 (20161225.0304)
 -->
<!-- Title: finite_state_machine Pages: 1 -->
<svg width="716pt" height="148pt"
 viewBox="0.00 0.00 715.60 148.14" xmlns="http://www.w3.org/2000/svg" xmlns:xlink="http://www.w3.org/1999/xlink">
<g id="graph0" class="graph" transform="scale(1 1) rotate(0) translate(4 144.1377)">
<title>finite_state_machine</title>
<polygon fill="#ffffff" stroke="transparent" points="-4,4 -4,-144.1377 711.6,-144.1377 711.6,4 -4,4"/>
<!-- center -->
<g id="node1" class="node">
<title>center</title>
</g>
<!-- THREAD_READY -->
<g id="node2" class="node">
<title>THREAD_READY</title>
<polygon fill="none" stroke="#000000" points="164.8,-123 38.8,-123 38.8,-87 164.8,-87 164.8,-123"/>
<text text-anchor="middle" x="101.8" y="-101.3" font-family="Helvetica,Arial,sans-serif" font-size="14.00" fill="#000000">THREAD_READY</text>
</g>
<!-- center&#45;&gt;THREAD_READY -->
<!-- THREAD_RUNNING -->
<g id="node4" class="node">
<title>THREAD_RUNNING</title>
<polygon fill="none" stroke="#000000" points="451.3,-123 308.3,-123 308.3,-87 451.3,-87 451.3,-123"/>
<text text-anchor="middle" x="379.8" y="-101.3" font-family="Helvetica,Arial,sans-serif" font-size="14.00" fill="#000000">THREAD_RUNNING</text>
</g>
<!-- THREAD_READY&#45;&gt;THREAD_RUNNING -->
<g id="edge4" class="edge">
<title>THREAD_READY&#45;&gt;THREAD_RUNNING</title>
<path fill="none" stroke="#000000" d="M164.8802,-92.1754C177.9405,-90.0205 191.6499,-88.1214 204.55,-87 232.8876,-84.5366 240.197,-84.7211 268.55,-87 278.2037,-87.7759 288.2836,-88.9248 298.2639,-90.2733"/>
<polygon fill="#000000" stroke="#000000" points="297.7989,-93.7423 308.1914,-91.682 298.7824,-86.8117 297.7989,-93.7423"/>
<text text-anchor="middle" x="236.55" y="-90.8" font-family="Helvetica,Arial,sans-serif" font-size="14.00" fill="#000000">schedule()</text>
</g>
<!-- init -->
<g id="node3" class="node">
<title>init</title>
<ellipse fill="#000000" stroke="#000000" cx="1.8" cy="-105" rx="1.8" ry="1.8"/>
</g>
<!-- init&#45;&gt;THREAD_READY -->
<g id="edge2" class="edge">
<title>init&#45;&gt;THREAD_READY</title>
<path fill="none" stroke="#000000" d="M3.7531,-105C12.0125,-105 20.2718,-105 28.5311,-105"/>
<polygon fill="#000000" stroke="#000000" points="28.6058,-108.5001 38.6057,-105 28.6057,-101.5001 28.6058,-108.5001"/>
</g>
<!-- exit -->
<g id="node6" class="node">
<title>exit</title>
<ellipse fill="#000000" stroke="#000000" cx="705.8" cy="-105" rx="1.8" ry="1.8"/>
</g>
<!-- init&#45;&gt;exit -->
<!-- THREAD_RUNNING&#45;&gt;THREAD_READY -->
<g id="edge5" class="edge">
<title>THREAD_RUNNING&#45;&gt;THREAD_READY</title>
<path fill="none" stroke="#000000" d="M308.146,-105C267.3011,-105 216.2257,-105 175.109,-105"/>
<polygon fill="#000000" stroke="#000000" points="174.8825,-101.5001 164.8825,-105 174.8825,-108.5001 174.8825,-101.5001"/>
<text text-anchor="middle" x="236.55" y="-111.8" font-family="Helvetica,Arial,sans-serif" font-size="14.00" fill="#000000">thread_yield()</text>
</g>
<!-- THREAD_DYING -->
<g id="node5" class="node">
<title>THREAD_DYING</title>
<polygon fill="none" stroke="#000000" points="668.3,-123 545.3,-123 545.3,-87 668.3,-87 668.3,-123"/>
<text text-anchor="middle" x="606.8" y="-101.3" font-family="Helvetica,Arial,sans-serif" font-size="14.00" fill="#000000">THREAD_DYING</text>
</g>
<!-- THREAD_RUNNING&#45;&gt;THREAD_DYING -->
<g id="edge6" class="edge">
<title>THREAD_RUNNING&#45;&gt;THREAD_DYING</title>
<path fill="none" stroke="#000000" d="M451.3126,-105C478.0473,-105 508.4,-105 535.1473,-105"/>
<polygon fill="#000000" stroke="#000000" points="535.2069,-108.5001 545.2068,-105 535.2068,-101.5001 535.2069,-108.5001"/>
<text text-anchor="middle" x="498.3" y="-111.8" font-family="Helvetica,Arial,sans-serif" font-size="14.00" fill="#000000">thread_exit()</text>
</g>
<!-- THREAD_BLOCKING -->
<g id="node7" class="node">
<title>THREAD_BLOCKING</title>
<polygon fill="none" stroke="#000000" points="363.3,-36 212.3,-36 212.3,0 363.3,0 363.3,-36"/>
<text text-anchor="middle" x="287.8" y="-14.3" font-family="Helvetica,Arial,sans-serif" font-size="14.00" fill="#000000">THREAD_BLOCKING</text>
</g>
<!-- THREAD_RUNNING&#45;&gt;THREAD_BLOCKING -->
<g id="edge7" class="edge">
<title>THREAD_RUNNING&#45;&gt;THREAD_BLOCKING</title>
<path fill="none" stroke="#000000" d="M360.7375,-86.9735C347.2918,-74.2586 329.1051,-57.0603 314.2561,-43.0183"/>
<polygon fill="#000000" stroke="#000000" points="316.5086,-40.3312 306.838,-36.0034 311.699,-45.4173 316.5086,-40.3312"/>
<text text-anchor="middle" x="382.3" y="-57.8" font-family="Helvetica,Arial,sans-serif" font-size="14.00" fill="#000000">thread_block()</text>
</g>
<!-- THREAD_DYING&#45;&gt;exit -->
<g id="edge9" class="edge">
<title>THREAD_DYING&#45;&gt;exit</title>
<path fill="none" stroke="#000000" d="M668.675,-105C676.9917,-105 685.3084,-105 693.6252,-105"/>
<polygon fill="#000000" stroke="#000000" points="693.7698,-108.5001 703.7697,-105 693.7697,-101.5001 693.7698,-108.5001"/>
</g>
<!-- THREAD_BLOCKING&#45;&gt;THREAD_READY -->
<g id="edge8" class="edge">
<title>THREAD_BLOCKING&#45;&gt;THREAD_READY</title>
<path fill="none" stroke="#000000" d="M249.3101,-36.0034C220.3929,-49.5291 180.609,-68.1377 149.6442,-82.6213"/>
<polygon fill="#000000" stroke="#000000" points="147.9145,-79.5663 140.3393,-86.9735 150.8803,-85.907 147.9145,-79.5663"/>
<text text-anchor="middle" x="198.3101" y="-55.8034" font-family="Helvetica,Arial,sans-serif" font-size="14.00" fill="#000000">thread_unblock()</text>
</g>
</g>
</svg>
